<?xml version="1.0" encoding="iso-8859-1"?>
<!-- Uploaded to: SVG Repo, www.svgrepo.com, Generator: SVG Repo Mixer Tools -->
<svg height="150px" width="150px" version="1.1" id="Layer_1" xmlns="http://www.w3.org/2000/svg" xmlns:xlink="http://www.w3.org/1999/xlink" 
	 viewBox="0 0 512 512" xml:space="preserve">
<ellipse style="fill:#EAEAED;" cx="256" cy="256" rx="256" ry="256"/>
<path style="fill:#D9D9DD;" d="M511.747,267.09c-4.357,102.202-68.636,188.88-158.599,225.813L256,395.756l7.983-16.252
	l-32.92-32.919l-54.6-55.086l62.385-148.508l94.765,94.764l49.017-99.782L511.747,267.09z"/>
<g>
	<path style="fill:orange;" d="M256,395.756c53.058-55.68,148.355-128.519,148.355-205.331c0-40.967-33.211-74.179-74.177-74.179
		c-38.899,0-70.803,29.948-73.924,68.042L256,190.424l31.824,39.498L224.98,286.48l41.09,33.841l-25.136,7.734l35.533,22.724
		L256,395.756z"/>
	<path style="fill:orange;" d="M238.848,142.991c-13.605-16.34-34.099-26.745-57.027-26.745c-40.967,0-74.177,33.213-74.177,74.179
		c0,77.822,95.088,147.437,148.356,205.331l6.689-39.901l-44.474-30.699l27.313-7.493l-38.915-32.631l58.494-56.56l-30.455-43.508
		L238.848,142.991z"/>
</g>
</svg>